<svg xmlns="http://www.w3.org/2000/svg" width="25" height="21"><path fill-rule="evenodd" fill="#D3D3D0" d="M24.26 13.119c-.716.967-1.786 1.493-2.815 1.493a2.75 2.75 0 01-1.656-.536c-1.338-.992-1.513-3.036-.391-4.557 1.124-1.52 3.129-1.95 4.47-.958 1.339.993 1.514 3.037.392 4.558zm-6.908-3.942c-.303 0-.608-.047-.907-.146h-.001c-1.693-.564-2.551-2.591-1.911-4.519.303-.914.897-1.676 1.672-2.146.811-.491 1.72-.608 2.562-.328.841.28 1.5.919 1.855 1.798.34.841.36 1.807.057 2.721-.527 1.587-1.909 2.62-3.327 2.62zm-6.996-1.134c-1.943 0-3.525-1.804-3.525-4.021C6.831 1.804 8.413 0 10.356 0c1.944 0 3.526 1.804 3.526 4.022 0 2.217-1.582 4.021-3.526 4.021zM6.963 9.468c-.294.837-.882 1.461-1.656 1.759-.316.122-.643.18-.969.18-1.277 0-2.54-.888-3.082-2.294-.678-1.767.035-3.691 1.59-4.29.773-.298 1.628-.229 2.406.194.74.404 1.325 1.085 1.646 1.921.322.836.345 1.734.065 2.53zm.245 1.764a5.82 5.82 0 014.92-2.694 5.818 5.818 0 014.92 2.694l2.603 4.064c.431.675.631 1.454.576 2.253a3.68 3.68 0 01-.879 2.153 3.703 3.703 0 01-2.816 1.297 3.67 3.67 0 01-1.484-.314 7.263 7.263 0 00-5.79-.022l-.049.022a3.67 3.67 0 01-2.313.22 3.676 3.676 0 01-1.988-1.203 3.684 3.684 0 01-.878-2.153 3.681 3.681 0 01.576-2.253l2.602-4.064z"/></svg>