<svg xmlns="http://www.w3.org/2000/svg" width="53" height="55"><path fill-rule="evenodd" fill="#6D5CAD" d="M52.313 16.033c-.891 2.183-2.605 3.532-4.957 3.9-1.028.161-1.683.52-1.944 1.066a1.565 1.565 0 00-.117.356l-.004.018c-.263 1.339.911 3.371 1.379 4.182l.096.168c.22.384 1.323 2.453 1.454 5.447.142 3.265-.899 6.33-3.096 9.112v3.733a.807.807 0 01-1.615 0v-4.016c0-.186.064-.366.182-.51 5.284-6.473 1.823-12.704 1.673-12.966l-.093-.162a24.293 24.293 0 01-.511-.916 22.11 22.11 0 01-13.212-3.92 16.797 16.797 0 01-3.28 4.443.806.806 0 11-1.129-1.153c3.686-3.599 4.4-7.603 4.973-10.821.133-.743.258-1.446.411-2.085.97-4.051 3.67-5.675 4.692-6.156C38.864 1 43.857.049 44.073.01a.816.816 0 01.951.794v4.235c1.436.193 3.65.639 4.326 1.602.161.23 2.871 3.746 3.29 4.526l.016.028c.189.354.292.635.325.885.007.055.007.111.012.167.064.778-.321 2.908-.68 3.786zm-20.091 3.995a20.485 20.485 0 0011.823 3.813c-.214-.605-.372-1.248-.399-1.881-5.779-.323-9.161-2.57-10.737-3.98a20.615 20.615 0 01-.687 2.048zm18.439-7.781c0-.302.091-.589.25-.831-.572-.868-1.516-2.074-2.006-2.699a32.551 32.551 0 01-.879-1.151c-.275-.35-2.129-.83-3.89-1.006a.806.806 0 01-.727-.803V1.866c-1.385.485-3.88 1.749-4.765 4.715a.802.802 0 01-.512.533c-.121.044-3.071 1.134-4.038 5.17a37.275 37.275 0 00-.391 1.993 66.889 66.889 0 01-.353 1.87c.349.386 1.125 1.149 2.394 1.916 1.583.957 4.266 2.107 8.187 2.295l.023-.054c.505-1.056 1.565-1.716 3.152-1.965 3.03-.475 3.958-2.879 4.198-4.848a1.513 1.513 0 01-.643-1.244zm-4.112-.821a1.173 1.173 0 110-2.342 1.173 1.173 0 010 2.342zM35.278 42.802c0-1.189-.172-2.295-.512-3.284a.807.807 0 011.525-.531l4.708 13.294a1.662 1.662 0 001.565 1.105h5.104c-.221-.736-.757-1.371-1.602-1.896-.94-.583-1.913-.803-1.922-.806a.808.808 0 01-.635-.788v-2.654a.807.807 0 011.615 0v2.048a8.573 8.573 0 011.751.803c1.651 1.009 2.524 2.427 2.524 4.1a.807.807 0 01-.808.807h-6.027a3.28 3.28 0 01-3.088-2.181l-2.843-8.027c-.488 1.755-1.656 3.162-3.456 4.15 1.515.084 2.718.591 3.579 1.511 1.457 1.555 1.331 3.703 1.325 3.794a.807.807 0 01-.806.753H19.129c-1.654 0-3.204-.633-4.5-1.834-3.115-.302-6.238-1.824-8.824-4.309-2.847-2.735-4.734-6.304-5.458-10.323a.807.807 0 011.59-.285c1.469 8.153 7.847 12.954 13.104 13.332a.81.81 0 01.513.234c1.043 1.043 2.246 1.571 3.575 1.571h17.286c-.087-.539-.306-1.268-.848-1.841-.629-.665-1.589-1.002-2.853-1.002h-6.355a.808.808 0 01-.018-1.614c.93-.02 3.317-.166 5.38-1.069 2.393-1.048 3.557-2.702 3.557-5.058zM20.532 30.868c-4.738 1.985-9.134 7.702-7.586 15.564a.807.807 0 01-.271.772c-.453.382-1.002.072-1.462-.125-4.282-1.836-6.817-5.117-7.536-9.751-.843-5.438.458-9.658 3.867-12.545 2.597-2.198 5.491-2.79 5.613-2.814a.934.934 0 00.752-1.089.934.934 0 00-1.089-.744c-.136.026-3.375.654-6.36 3.124-2.343 1.939-5.088 5.575-4.854 11.887a.806.806 0 01-.777.836.812.812 0 01-.837-.776c-.259-6.969 2.814-11.019 5.438-13.19 3.304-2.733 6.94-3.438 7.093-3.467a2.552 2.552 0 012.974 2.032 2.548 2.548 0 01-2.034 2.971c-.016.003-2.617.55-4.875 2.461-2.95 2.498-4.066 6.222-3.314 11.067.586 3.785 2.558 6.535 5.866 8.186-.614-5.89 1.769-12.956 8.767-15.888 1.82-.762 3.446-1.636 4.833-2.598a.808.808 0 01.922 1.326c-1.481 1.026-3.206 1.955-5.13 2.761z"/></svg>