<svg xmlns="http://www.w3.org/2000/svg" width="14" height="15"><path fill-rule="evenodd" fill="#FFF" d="M13.693 11.865L11.53 9.542c-.431-.46-1.144-.446-1.589.033l-1.09 1.169-.215-.128c-.689-.41-1.63-.97-2.622-2.034-.994-1.068-1.518-2.081-1.899-2.82l-.118-.225.731-.784.36-.386c.446-.48.46-1.245.029-1.706L2.954.338c-.429-.462-1.143-.447-1.59.032l-.609.658.015.018c-.204.28-.374.603-.501.951a4.132 4.132 0 00-.223.964c-.287 2.542.796 4.864 3.732 8.017 4.059 4.355 7.331 4.027 7.472 4.01a3.443 3.443 0 001.784-.779l.013.013.618-.649c.445-.481.458-1.245.028-1.708z"/></svg>