<svg 
 xmlns="http://www.w3.org/2000/svg"
 xmlns:xlink="http://www.w3.org/1999/xlink"
 width="14px" height="15px">
<path fill-rule="evenodd"  fill="rgb(255, 255, 255)"
 d="M13.693,11.865 L11.530,9.542 C11.099,9.082 10.386,9.096 9.941,9.575 L8.851,10.744 C8.782,10.704 8.711,10.661 8.636,10.616 C7.947,10.206 7.006,9.646 6.014,8.582 C5.020,7.514 4.496,6.501 4.115,5.762 C4.074,5.685 4.035,5.610 3.997,5.537 L4.728,4.753 L5.088,4.367 C5.534,3.887 5.548,3.122 5.117,2.661 L2.954,0.338 C2.525,-0.124 1.811,-0.109 1.364,0.370 L0.755,1.028 L0.770,1.046 C0.566,1.326 0.396,1.649 0.269,1.997 C0.152,2.329 0.078,2.645 0.046,2.961 C-0.241,5.503 0.842,7.825 3.778,10.978 C7.837,15.333 11.109,15.005 11.250,14.988 C11.557,14.949 11.852,14.871 12.151,14.746 C12.473,14.611 12.774,14.428 13.034,14.209 L13.047,14.222 L13.665,13.573 C14.110,13.092 14.123,12.328 13.693,11.865 L13.693,11.865 Z"/>
</svg>